<svg width="400" height="600" viewBox="0 0 56 70" fill="none" xmlns="http://www.w3.org/2000/svg">
<path d="M27.4701 65.73C25.6201 65.91 23.6801 66.16 22.1801 67.27C21.9601 67.43 21.7501 67.63 21.7101 67.9C21.6401 68.49 22.4401 68.73 23.0401 68.75C33.8101 69.09 44.5801 69.12 55.3501 68.85C55.4901 68.11 54.6601 67.59 53.9601 67.34C45.6501 64.31 36.1101 64.89 27.4701 65.73Z" fill="url(#paint0_linear)"/>
<path d="M27.4701 65.73C25.6201 65.91 23.6801 66.16 22.1801 67.27C21.9601 67.43 21.7501 67.63 21.7101 67.9C21.6401 68.49 22.4401 68.73 23.0401 68.75C33.8101 69.09 44.5801 69.12 55.3501 68.85C55.4901 68.11 54.6601 67.59 53.9601 67.34C45.6501 64.31 36.1101 64.89 27.4701 65.73Z" fill="url(#paint1_linear)"/>
<path d="M21.5101 51.21C20.8601 52.56 21.1501 54.69 21.4401 56.54C21.6601 57.93 22.0401 59.41 23.1401 60.28C23.7601 60.77 24.5301 61.01 25.3001 61.2C28.8201 62.05 32.5701 61.93 36.0201 60.86C36.7101 60.64 37.41 60.38 37.98 59.94C38.89 59.23 39.3801 58.11 39.7401 57.01C40.2301 55.51 41.4401 52.13 39.9401 51.3C38.6201 50.57 34.3801 51.47 32.8001 51.46C31.6001 51.46 30.4 51.44 29.22 51.16C27.87 50.85 26.5501 50.2 25.1901 49.95C23.0901 49.56 22.0201 50.15 21.5101 51.21Z" fill="#2F3F47"/>
<path d="M30.0901 63.15C30.1001 63.03 30.11 62.91 30.12 62.78C29.08 62.07 27.2501 62.3 26.1501 62.66C24.9701 63.04 24.97 63.78 24.98 65C24.99 65.69 25.05 66.48 25.58 66.92C25.99 67.27 26.57 67.31 27.1 67.35C27.58 67.38 28.06 67.41 28.54 67.43C28.87 67.45 29.24 67.46 29.5 67.24C29.76 67.02 29.8 66.64 29.83 66.31C29.92 65.26 30.0001 64.21 30.0901 63.15Z" fill="#2F3F47"/>
<path d="M31.05 63.15C31.04 63.03 31.03 62.91 31.02 62.78C32.06 62.07 33.89 62.3 34.99 62.66C36.17 63.04 36.17 63.78 36.16 65C36.15 65.69 36.09 66.48 35.56 66.92C35.15 67.27 34.57 67.31 34.04 67.35C33.56 67.38 33.08 67.41 32.6 67.43C32.27 67.45 31.9 67.46 31.64 67.24C31.38 67.02 31.34 66.64 31.31 66.31C31.22 65.26 31.14 64.21 31.05 63.15Z" fill="#2F3F47"/>
<path d="M5.85999 13C5.88999 13.25 5.92002 13.51 5.83002 13.75C5.76002 13.94 5.61998 14.09 5.47998 14.24C4.88998 14.85 4.25 15.42 3.56 15.92C2.78 15.81 2.01999 15.6 1.29999 15.28C1.16999 15.22 1.03 15.15 0.940002 15.03C0.870002 14.94 0.850017 14.82 0.830017 14.71C0.560017 13.43 0.29002 12.14 0.0200195 10.86C0.42002 10.59 0.859998 10.37 1.31 10.2C1.49 10.97 1.66998 11.75 1.84998 12.52C2.01998 13.26 2.30003 14.12 3.03003 14.33C3.47003 13.95 3.90998 13.56 4.34998 13.18C4.42998 13.11 4.49999 13.04 4.54999 12.95C4.59999 12.84 4.58 12.71 4.56 12.58C4.45 11.83 4.27999 11.08 4.04999 10.35C4.41999 10.28 4.78002 10.21 5.15002 10.14C5.61002 11.01 5.73999 12.02 5.85999 13Z" fill="#2F3F47"/>
<path d="M2.43993 15.94C2.42993 15.98 2.43994 16.02 2.44994 16.06C2.55994 16.52 2.66996 16.98 2.77996 17.44C3.49996 17.27 4.20995 17.04 4.89995 16.77C4.82995 16.37 4.71994 15.98 4.56994 15.61C4.53994 15.53 4.4899 15.44 4.4099 15.41C4.3599 15.39 4.29993 15.4 4.24993 15.41C3.67993 15.51 3.11995 15.65 2.57995 15.83C2.51995 15.86 2.45993 15.89 2.43993 15.94Z" fill="#2F3F47"/>
<path d="M2.59005 17.88C2.52005 18.73 3.69001 20.3 4.05001 21C4.53001 21.95 5.01002 22.91 5.69002 23.72C6.37002 24.54 7.27002 25.21 8.31002 25.43C8.90002 25.55 9.51001 25.52 10.11 25.44C11.91 25.21 13.66 24.56 15.18 23.56C15.3 23.48 15.43 23.39 15.48 23.25C15.53 23.11 15.48 22.95 15.43 22.8C15.24 22.23 15.05 21.6 14.76 21.08C14.25 20.16 14.57 20.32 13.75 20.39C13.12 20.44 12.22 21.1 11.55 21.27C10.77 21.46 9.96 21.56 9.17 21.66C8.67 21.72 8.11002 21.77 7.69002 21.49C7.46002 21.33 7.30005 21.1 7.15005 20.86C6.25005 19.46 5.43004 18.01 4.71004 16.52C4.59004 16.26 2.75003 17.34 2.63003 17.75C2.60003 17.79 2.59005 17.83 2.59005 17.88Z" fill="#516770"/>
<g opacity="0.15">
<path opacity="0.15" d="M10.1001 24.89C9.72012 23.97 9.55015 23.05 9.50015 22.07C9.49015 21.88 9.23016 21.85 9.20016 22.05C9.03016 23.1 9.20016 24.17 9.57016 25.16C9.69016 25.52 10.2401 25.25 10.1001 24.89Z" fill="#272525"/>
<path opacity="0.15" d="M8.37005 24.96C8.11005 24.02 8.21007 23.27 8.52007 22.36C8.56007 22.24 8.38006 22.15 8.32006 22.26C8.04006 22.72 7.73007 23.09 7.64007 23.64C7.55007 24.16 7.57006 24.67 7.76006 25.17C7.88006 25.52 8.47005 25.32 8.37005 24.96Z" fill="#272525"/>
</g>
<path d="M17.73 16.96C16.37 17.62 16.04 19.39 15.92 20.9C15.14 30.18 15.44 39.56 16.8 48.77C16.97 49.89 17.2101 51.11 18.0901 51.82C18.6601 52.28 19.41 52.44 20.13 52.57C27.46 53.91 35.03 53.92 42.36 52.6C42.6 52.56 42.86 52.51 43.06 52.35C43.33 52.14 43.4301 51.79 43.5101 51.46C46.1401 41.17 45.52 30.37 44.85 19.78C44.83 19.41 44.8 19.03 44.63 18.71C44.42 18.32 44.03 18.06 43.63 17.86C41.35 16.66 38.68 16.56 36.11 16.52C30.59 16.42 25.07 16.47 19.55 16.65C18.93 16.66 18.28 16.69 17.73 16.96Z" fill="#EAF1F2"/>
<path d="M21.5399 14.02C27.5699 15.25 33.73 15.15 39.74 13.73C41.01 13.43 42.38 12.99 43.24 11.56C44.72 9.08997 43.76 4.89998 41.9 3.06998C40.04 1.23998 37.67 1.10995 35.44 1.03995C31.86 0.929952 28.2599 0.819972 24.7199 1.55997C22.6699 1.98997 20.52 2.81995 19.15 5.09995C17.78 7.37995 17.69 11.5 19.44 13.12C20.05 13.69 20.8099 13.87 21.5399 14.02Z" fill="#EAF1F2"/>
<path d="M23.07 63.64C28.06 64.03 33.15 64 38.13 63.55C39.18 63.45 40.31 63.31 41.02 62.86C42.24 62.07 41.45 60.7399 39.91 60.1599C38.37 59.5799 36.41 59.54 34.56 59.51C31.6 59.47 28.62 59.44 25.69 59.68C24 59.82 22.21 60.08 21.08 60.81C19.95 61.54 19.87 62.85 21.32 63.36C21.84 63.53 22.46 63.59 23.07 63.64Z" fill="#EAF1F2"/>
<path d="M24.9501 11.03C28.9301 11.56 32.9801 11.52 36.9501 10.9C37.7901 10.77 38.6901 10.58 39.2501 9.96003C40.2301 8.89003 39.5901 7.07998 38.3701 6.28998C37.1501 5.49998 35.5801 5.43998 34.1101 5.40998C31.7501 5.35998 29.3801 5.31002 27.0401 5.64002C25.6901 5.83002 24.2701 6.17999 23.3701 7.16999C22.4701 8.15999 22.4101 9.94001 23.5601 10.63C23.9701 10.89 24.4701 10.97 24.9501 11.03Z" fill="#2F3F47"/>
<path d="M25.78 17.06C25.28 17.06 24.69 17.12 24.45 17.56C24.33 17.78 24.33 18.04 24.34 18.29C24.51 24.35 24.69 30.42 24.86 36.48C28.69 37.5 32.77 38.52 36.54 37.3C37.05 30.65 37.17 23.98 36.89 17.31C35.33 16.97 33.71 16.98 32.11 17C30.01 17.02 27.9 17.04 25.78 17.06Z" fill="#E2ECED"/>
<path d="M37.23 17.31C37.22 17.17 37.13 17.02 36.99 16.99C35.27 16.64 33.53 16.65 31.79 16.67C29.79 16.69 27.79 16.71 25.79 16.72C24.46 16.76 24.0001 17.32 24.0301 18.63C24.0901 20.61 24.14 22.59 24.2 24.58C24.31 28.54 24.43 32.5099 24.54 36.4699C24.54 36.6199 24.6401 36.75 24.7801 36.79C28.6301 37.82 32.7 38.82 36.63 37.61C36.78 37.56 36.86 37.44 36.87 37.29C37.38 30.65 37.5 23.98 37.23 17.31ZM36.24 37.05C32.57 38.1 28.79 37.1799 25.2 36.2199C25.11 33.0399 25.02 29.86 24.93 26.68C24.88 25.05 24.84 23.42 24.79 21.78C24.77 20.96 24.74 20.15 24.72 19.33C24.71 18.98 24.7 18.63 24.69 18.28C24.67 17.59 25.23 17.4 25.8 17.38C27.58 17.36 29.36 17.35 31.14 17.33C32.96 17.31 34.8 17.25 36.6 17.58C36.83 24.08 36.72 30.57 36.24 37.05Z" fill="#2F3F47"/>
<path opacity="0.2" d="M31.59 35.5C31.68 35.36 31.73 35.21 31.78 35.06C31.84 34.85 31.89 34.63 31.85 34.41C31.82 34.24 31.73 34.09 31.64 33.93C31.61 33.88 31.58 33.82 31.55 33.77C31.5 33.69 31.46 33.6 31.39 33.53C31.22 33.34 30.95 33.28 30.7 33.23C30.52 33.2 30.34 33.17 30.15 33.19C29.74 33.24 29.39 33.55 29.25 33.94C29.11 34.32 29.16 34.76 29.33 35.13C29.55 35.6 30 35.99 30.52 36.03C30.95 36.06 31.37 35.85 31.59 35.5Z" fill="#272525"/>
<path d="M31.3 35.44C31.39 35.3 31.44 35.15 31.49 35C31.55 34.79 31.6 34.57 31.56 34.35C31.53 34.18 31.44 34.03 31.36 33.87C31.33 33.82 31.3 33.76 31.27 33.71C31.22 33.63 31.18 33.54 31.11 33.47C30.94 33.28 30.67 33.22 30.42 33.17C30.24 33.14 30.06 33.11 29.87 33.13C29.46 33.18 29.1099 33.49 28.9699 33.88C28.8299 34.27 28.88 34.7 29.05 35.07C29.27 35.54 29.72 35.93 30.24 35.97C30.66 36.01 31.08 35.79 31.3 35.44Z" fill="#83959E"/>
<path opacity="0.2" d="M30.49 34.79C30.57 34.68 30.58 34.55 30.58 34.42C30.58 34.38 30.58 34.33 30.57 34.29C30.55 34.23 30.5 34.18 30.44 34.14C30.27 34.03 30.03 34.02 29.85 34.13C29.68 34.24 29.58 34.48 29.65 34.67C29.76 34.79 29.89 34.89 30.05 34.93C30.21 34.96 30.39 34.92 30.49 34.79Z" fill="black"/>
<path opacity="0.2" d="M31.6801 50.08C31.7701 49.94 31.8201 49.79 31.8701 49.64C31.9301 49.43 31.9801 49.21 31.9401 48.99C31.9101 48.82 31.8201 48.67 31.7401 48.51C31.7101 48.46 31.6801 48.4 31.6501 48.35C31.6001 48.27 31.5601 48.18 31.4901 48.11C31.3201 47.92 31.0501 47.86 30.8001 47.81C30.6201 47.78 30.4401 47.75 30.2501 47.77C29.8401 47.82 29.4901 48.13 29.3501 48.52C29.2101 48.9 29.2601 49.34 29.4301 49.71C29.6501 50.18 30.1001 50.57 30.6201 50.61C31.0301 50.65 31.4601 50.44 31.6801 50.08Z" fill="#272525"/>
<path d="M31.3901 50.03C31.4801 49.89 31.5301 49.74 31.5801 49.59C31.6401 49.38 31.6901 49.16 31.6501 48.94C31.6201 48.77 31.53 48.62 31.44 48.46C31.41 48.41 31.38 48.35 31.35 48.3C31.3 48.22 31.26 48.13 31.19 48.06C31.02 47.87 30.75 47.81 30.5 47.76C30.32 47.73 30.1401 47.7 29.9501 47.72C29.5401 47.77 29.19 48.08 29.05 48.47C28.91 48.85 28.96 49.29 29.13 49.66C29.35 50.13 29.8 50.52 30.32 50.56C30.74 50.59 31.1701 50.38 31.3901 50.03Z" fill="#83959E"/>
<path opacity="0.2" d="M30.5801 49.38C30.6601 49.27 30.6601 49.14 30.6701 49.01C30.6701 48.97 30.6701 48.92 30.6601 48.88C30.6401 48.82 30.5901 48.77 30.5301 48.73C30.3601 48.62 30.1201 48.61 29.9401 48.72C29.7701 48.83 29.6701 49.07 29.7401 49.26C29.8501 49.38 29.9801 49.48 30.1401 49.52C30.2901 49.55 30.4801 49.51 30.5801 49.38Z" fill="black"/>
<path d="M45.2401 36.52C45.3701 36.3 45.5001 36.08 45.7101 35.94C45.8801 35.83 46.0801 35.8 46.2801 35.76C47.1201 35.63 47.9701 35.57 48.8201 35.58C49.3801 36.13 49.8601 36.77 50.2401 37.46C50.3101 37.59 50.3801 37.73 50.3801 37.87C50.3801 37.98 50.3301 38.09 50.2801 38.2C49.7201 39.39 49.16 40.57 48.6 41.76C48.12 41.74 47.64 41.65 47.17 41.5C47.49 40.78 47.8201 40.05 48.1401 39.33C48.4501 38.64 48.75 37.79 48.3 37.18C47.72 37.22 47.14 37.26 46.55 37.3C46.45 37.31 46.3401 37.31 46.2601 37.36C46.1501 37.42 46.0901 37.53 46.0301 37.64C45.6601 38.31 45.3501 39.0099 45.0901 39.7199C44.7501 39.5599 44.4201 39.39 44.0801 39.23C44.2301 38.26 44.7401 37.38 45.2401 36.52Z" fill="#2F3F47"/>
<path d="M49.75 36.25C49.78 36.23 49.8 36.19 49.82 36.15C50.01 35.72 50.2 35.28 50.39 34.85C49.71 34.55 49.01 34.3 48.29 34.1C48.1 34.46 47.96 34.83 47.85 35.22C47.83 35.3 47.81 35.4 47.86 35.47C47.89 35.52 47.94 35.54 47.99 35.57C48.5 35.84 49.03 36.06 49.58 36.24C49.63 36.26 49.7 36.28 49.75 36.25Z" fill="#2F3F47"/>
<path d="M50.8 34.61C51.36 33.98 51.3801 32.02 51.5201 31.25C51.7101 30.21 51.91 29.15 51.86 28.09C51.81 27.03 51.5101 25.95 50.8101 25.15C50.4101 24.7 49.9101 24.35 49.3801 24.06C47.8001 23.16 46.0201 22.62 44.2101 22.49C44.0701 22.48 43.91 22.48 43.79 22.55C43.66 22.63 43.6001 22.79 43.5601 22.94C43.3701 23.51 43.14 24.12 43.05 24.71C42.9 25.75 42.7401 25.42 43.4401 25.87C43.9701 26.21 45.09 26.23 45.73 26.5C46.47 26.82 47.17 27.23 47.86 27.63C48.3 27.89 48.7701 28.1799 48.9401 28.6599C49.0301 28.9199 49.01 29.21 48.99 29.49C48.86 31.15 48.6401 32.8 48.3101 34.43C48.2501 34.71 50.3701 34.96 50.7101 34.71C50.7301 34.68 50.76 34.65 50.8 34.61Z" fill="#516770"/>
<g opacity="0.15">
<path opacity="0.15" d="M49.0501 24.49C48.8001 25.45 48.3801 26.29 47.8301 27.11C47.7201 27.27 47.9201 27.45 48.0601 27.31C48.8301 26.57 49.3401 25.62 49.6401 24.61C49.7501 24.23 49.1501 24.11 49.0501 24.49Z" fill="#272525"/>
<path opacity="0.15" d="M50.47 25.47C50.11 26.38 49.5801 26.92 48.7801 27.46C48.6701 27.53 48.7601 27.71 48.8801 27.66C49.3901 27.46 49.8501 27.36 50.2601 26.97C50.6401 26.61 50.9401 26.18 51.0901 25.68C51.2001 25.33 50.6 25.13 50.47 25.47Z" fill="#272525"/>
</g>
<defs>
<linearGradient id="paint0_linear" x1="21.7084" y1="67.0417" x2="55.3672" y2="67.0417" gradientUnits="userSpaceOnUse">
<stop stop-color="#4D4D4D"/>
<stop offset="1"/>
</linearGradient>
<linearGradient id="paint1_linear" x1="21.7084" y1="67.0417" x2="55.3672" y2="67.0417" gradientUnits="userSpaceOnUse">
<stop/>
<stop offset="1"/>
</linearGradient>
</defs>
</svg>
